HIERARCHY
ROOT Hips
{
	OFFSET 0.000000 0.000000 0.000000 
	CHANNELS 6 Xposition Yposition Zposition Zrotation Xrotation Yrotation
	JOINT Spine
	{
		OFFSET -0.000000 8.285670 0.000000 
		CHANNELS 3 Zrotation Xrotation Yrotation
		JOINT Spine1
		{
			OFFSET -0.000000 20.280901 0.000000 
			CHANNELS 3 Zrotation Xrotation Yrotation
			JOINT Neck
			{
				OFFSET -0.000000 22.301800 0.000000 
				CHANNELS 3 Zrotation Xrotation Yrotation
				JOINT Head
				{
					OFFSET -0.000000 15.661900 2.020890 
					CHANNELS 3 Zrotation Xrotation Yrotation
					End Site
					{
						OFFSET -0.000000 20.208887 0.000000 
					}
				}
			}
			JOINT LeftShoulder
			{
				OFFSET 3.887530 15.503099 -0.416373 
				CHANNELS 3 Zrotation Xrotation Yrotation
				JOINT LeftArm
				{
					OFFSET 20.767099 0.000000 0.000000 
					CHANNELS 3 Zrotation Xrotation Yrotation
					JOINT LeftForeArm
					{
						OFFSET 26.608500 0.000000 0.000000 
						CHANNELS 3 Zrotation Xrotation Yrotation
						JOINT LeftHand
						{
							OFFSET 25.563202 0.000000 0.000000 
							CHANNELS 3 Zrotation Xrotation Yrotation
							End Site
							{
								OFFSET 15.156667 0.000000 0.000000 
							}
						}
					}
				}
			}
			JOINT RightShoulder
			{
				OFFSET -4.190880 15.503099 -0.416373 
				CHANNELS 3 Zrotation Xrotation Yrotation
				JOINT RightArm
				{
					OFFSET -20.767099 0.000000 0.000000 
					CHANNELS 3 Zrotation Xrotation Yrotation
					JOINT RightForeArm
					{
						OFFSET -26.608500 0.000000 0.000000 
						CHANNELS 3 Zrotation Xrotation Yrotation
						JOINT RightHand
						{
							OFFSET -25.563202 0.000000 0.000000 
							CHANNELS 3 Zrotation Xrotation Yrotation
							End Site
							{
								OFFSET -15.156667 0.000000 0.000000 
							}
						}
					}
				}
			}
		}
	}
	JOINT LeftUpLeg
	{
		OFFSET 10.104500 0.000000 0.000000 
		CHANNELS 3 Zrotation Xrotation Yrotation
		JOINT LeftLeg
		{
			OFFSET -0.000000 -50.743301 0.000000 
			CHANNELS 3 Zrotation Xrotation Yrotation
			JOINT LeftFoot
			{
				OFFSET -0.000000 -35.579197 0.000000 
				CHANNELS 3 Zrotation Xrotation Yrotation
				JOINT LeftToeBase
				{
					OFFSET -0.000000 -6.567910 15.156700 
					CHANNELS 3 Zrotation Xrotation Yrotation
					End Site
					{
						OFFSET -0.000000 0.000000 4.041778 
					}
				}
			}
		}
	}
	JOINT RightUpLeg
	{
		OFFSET -10.104500 0.000000 0.000000 
		CHANNELS 3 Zrotation Xrotation Yrotation
		JOINT RightLeg
		{
			OFFSET -0.000000 -50.743301 0.000000 
			CHANNELS 3 Zrotation Xrotation Yrotation
			JOINT RightFoot
			{
				OFFSET -0.000000 -35.579197 0.000000 
				CHANNELS 3 Zrotation Xrotation Yrotation
				JOINT RightToeBase
				{
					OFFSET -0.000000 -6.567910 15.156700 
					CHANNELS 3 Zrotation Xrotation Yrotation
					End Site
					{
						OFFSET -0.000000 0.000000 4.041778 
					}
				}
			}
		}
	}
}
MOTION
Frames: 15
Frame Time: 0.010000
-2.415476 92.497757 54.879105 -2.695528 7.408223 1.703683 4.508186 -10.346224 2.366373 0.643809 3.189330 0.635058 -1.250998 -1.043276 -2.286805 -12.227806 21.936749 1.347037 -2.370057 8.323732 7.737510 -82.345650 19.667866 -8.470503 3.836117 6.609067 -8.860486 -12.214150 6.006773 8.426508 -9.740721 2.538286 -5.822385 77.566559 30.284863 20.254700 -0.975381 1.942629 0.964783 16.617382 1.050329 -6.162400 4.513892 -35.018555 -11.280691 0.663516 39.444138 -27.613489 5.406084 -18.317671 41.322250 0.000000 0.000000 0.000000 -0.414845 -0.925557 -4.008024 8.134717 14.459952 -0.075582 2.150369 -22.251736 -2.314768 0.000000 0.000000 0.000000 
-2.247375 92.479446 55.352375 -2.731030 7.468745 1.555672 4.517189 -10.357981 2.398766 0.588669 3.133768 0.647255 -1.264520 -1.105970 -2.260489 -12.257481 21.918812 1.380820 -2.362785 8.311934 7.760790 -82.331367 19.636583 -8.449865 3.826261 6.600876 -8.860552 -12.236858 5.995366 8.433740 -9.728373 2.588418 -5.847784 77.635201 30.283218 20.249426 -0.936346 1.980993 0.930187 16.625963 1.086265 -6.171817 4.498155 -34.877438 -11.279239 0.717447 39.050343 -27.905994 4.817126 -18.549824 41.681664 0.000000 0.000000 0.000000 -0.455709 -0.768613 -4.030690 8.059930 14.578544 -0.126877 2.270076 -22.305323 -2.135509 0.000000 0.000000 0.000000 
-2.074712 92.463287 55.827168 -2.763001 7.532298 1.405389 4.522391 -10.366422 2.425593 0.535917 3.074199 0.657695 -1.277764 -1.171021 -2.232357 -12.289948 21.900583 1.417413 -2.355228 8.294103 7.777145 -82.313553 19.610538 -8.431314 3.815641 6.591402 -8.869567 -12.255276 5.983408 8.439241 -9.718352 2.639377 -5.872892 77.706985 30.280495 20.240088 -0.898332 2.018700 0.895319 16.635706 1.121484 -6.181184 4.479703 -34.724026 -11.267421 0.774696 38.667690 -28.223667 4.267447 -18.784397 42.053341 0.000000 0.000000 0.000000 -0.501338 -0.627902 -4.056756 7.977157 14.722882 -0.188715 2.397524 -22.355791 -1.943465 0.000000 0.000000 0.000000 
-1.897632 92.449425 56.303062 -2.790987 7.599196 1.252529 4.523632 -10.372091 2.447191 0.484978 3.010978 0.666365 -1.289899 -1.238381 -2.202667 -12.325673 21.881861 1.456781 -2.346428 8.270134 7.786179 -82.292618 19.589819 -8.414634 3.804746 6.580522 -8.887866 -12.269554 5.970819 8.442992 -9.710355 2.690933 -5.897691 77.781578 30.276598 20.226877 -0.861245 2.055661 0.860306 16.646484 1.155936 -6.190510 4.457867 -34.559910 -11.245609 0.834168 38.296593 -28.562382 3.761677 -19.017368 42.433563 0.000000 0.000000 0.000000 -0.552296 -0.504828 -4.086308 7.886749 14.894239 -0.260327 2.532095 -22.403023 -1.739607 0.000000 0.000000 0.000000 
-1.716391 92.437920 56.779999 -2.815200 7.668845 1.097291 4.520579 -10.374355 2.463152 0.436858 2.943894 0.673273 -1.301440 -1.307948 -2.171316 -12.364277 21.863245 1.498901 -2.337187 8.239919 7.787955 -82.267929 19.574228 -8.399214 3.793555 6.568271 -8.916111 -12.279319 5.957648 8.445230 -9.704344 2.743224 -5.921808 77.858055 30.271759 20.210125 -0.825292 2.091659 0.825271 16.658381 1.189442 -6.199747 4.432721 -34.385616 -11.214044 0.895014 37.937809 -28.919014 3.304379 -19.245543 42.819328 0.000000 0.000000 0.000000 -0.608130 -0.399611 -4.119506 7.788465 15.093808 -0.342500 2.674282 -22.446831 -1.523131 0.000000 0.000000 0.000000 
-1.523025 92.435600 57.257622 -2.827659 7.743739 0.936158 4.501925 -10.359867 2.457448 0.400825 2.861839 0.673335 -1.272546 -1.374290 -2.143181 -12.487282 21.813231 1.566015 -2.321951 8.183539 7.757924 -82.240013 19.576298 -8.375321 3.791330 6.549016 -8.984500 -12.273092 5.941452 8.440364 -9.706738 2.794855 -5.940984 77.942841 30.263515 20.180382 -0.794848 2.124340 0.790699 16.674246 1.219601 -6.207900 4.406209 -34.165104 -11.149607 0.957613 37.581409 -29.481575 3.088718 -19.414616 43.356728 0.000000 0.000000 0.000000 -0.678349 -0.364473 -4.165940 7.670565 15.419035 -0.470518 2.845516 -22.484560 -1.259369 0.000000 0.000000 0.000000 
-1.328821 92.433914 57.735237 -2.838975 7.819031 0.774471 4.481893 -10.344634 2.450152 0.366049 2.779103 0.672851 -1.253615 -1.440758 -2.114000 -12.592018 21.768724 1.627644 -2.306260 8.125313 7.725419 -82.211212 19.579929 -8.350227 3.790030 6.528966 -9.056505 -12.265970 5.924724 8.435324 -9.709736 2.846552 -5.959677 78.026695 30.255703 20.150042 -0.764615 2.156292 0.756430 16.690481 1.249045 -6.215900 4.375822 -33.947548 -11.084116 1.017976 37.241634 -29.996035 2.877220 -19.584686 43.849007 0.000000 0.000000 0.000000 -0.750181 -0.335479 -4.213115 7.549026 15.751318 -0.599864 3.017791 -22.517336 -0.993153 0.000000 0.000000 0.000000 
-1.133218 92.433372 58.212818 -2.848555 7.894660 0.611983 4.459507 -10.327705 2.440083 0.333453 2.694937 0.671440 -1.241908 -1.507525 -2.083587 -12.683620 21.728277 1.685876 -2.289747 8.063606 7.688407 -82.181572 19.585899 -8.322700 3.790424 6.507630 -9.134751 -12.257012 5.907246 8.429811 -9.713886 2.898188 -5.977584 78.110130 30.248497 20.118422 -0.735309 2.187186 0.722449 16.707447 1.277444 -6.223658 4.341661 -33.730305 -11.015892 1.075791 36.917744 -30.474270 2.683675 -19.750816 44.305515 0.000000 0.000000 0.000000 -0.824240 -0.316748 -4.261791 7.411196 16.188059 -0.730454 3.209815 -22.643141 -0.717626 0.000000 0.000000 0.000000 
-0.935973 92.434341 58.690319 -2.856017 7.970699 0.448528 4.434246 -10.308276 2.426387 0.303439 2.608758 0.668750 -1.235277 -1.574778 -2.051876 -12.765918 21.691202 1.742210 -2.271860 7.997246 7.645277 -82.151649 19.595045 -8.291609 3.793870 6.484464 -9.220866 -12.245864 5.888708 8.423355 -9.719235 2.949545 -5.994355 78.193077 30.241550 20.085033 -0.706895 2.216954 0.688887 16.725245 1.304759 -6.231140 4.303935 -33.511703 -10.943856 1.130252 36.609360 -30.924650 2.517951 -19.908958 44.733543 0.000000 0.000000 0.000000 -0.900963 -0.311310 -4.312381 7.281083 16.542309 -0.870480 3.387103 -22.652416 -0.438833 0.000000 0.000000 0.000000 
-0.736796 92.437042 59.167362 -2.861112 8.047066 0.284197 4.405400 -10.285741 2.408153 0.276979 2.520051 0.664717 -1.232427 -1.642628 -2.018747 -12.841644 21.657072 1.797817 -2.252464 7.925066 7.594697 -82.121979 19.607702 -8.255193 3.801219 6.459074 -9.316690 -12.232096 5.868884 8.415878 -9.726372 3.000593 -6.009666 78.275757 30.235088 20.049677 -0.679812 2.245376 0.655759 16.743986 1.330736 -6.238209 4.262753 -33.290642 -10.867307 1.180979 36.316097 -31.352551 2.386944 -20.055960 45.137623 0.000000 0.000000 0.000000 -0.980499 -0.321667 -4.365229 7.145078 16.920908 -1.018368 3.569567 -22.656694 -0.150894 0.000000 0.000000 0.000000 
-0.535710 92.441650 59.644081 -2.863689 8.123580 0.118678 4.372646 -10.259628 2.385029 0.254470 2.428513 0.659018 -1.232375 -1.710833 -1.984033 -12.912329 21.625139 1.853261 -2.230844 7.846120 7.535390 -82.093643 19.624487 -8.211780 3.813895 6.430807 -9.423273 -12.215661 5.847331 8.407080 -9.735568 3.051015 -6.023293 78.358192 30.229061 20.012009 -0.653966 2.272352 0.623232 16.763742 1.355323 -6.244905 4.218292 -33.066475 -10.785949 1.227331 36.037724 -31.761158 2.295749 -20.188858 45.520679 0.000000 0.000000 0.000000 -1.066206 -0.315004 -4.417974 7.003143 17.326826 -1.174571 3.774446 -22.720577 0.157946 0.000000 0.000000 0.000000 
-0.332727 92.448280 60.120117 -2.863721 8.200198 -0.047814 4.335827 -10.229669 2.356575 0.236123 2.333972 0.651624 -1.234067 -1.779536 -1.947730 -12.979671 21.595510 1.909304 -2.206603 7.759465 7.465986 -82.067650 19.645420 -8.159114 3.833235 6.399199 -9.541998 -12.196643 5.823751 8.396853 -9.746426 3.100934 -6.034995 78.439827 30.223480 19.972315 -0.629648 2.297803 0.591310 16.784550 1.378393 -6.251125 4.170693 -32.838783 -10.699530 1.268799 35.773754 -32.152256 2.245598 -20.306770 45.885017 0.000000 0.000000 0.000000 -1.150782 -0.371070 -4.476247 6.854691 17.762772 -1.340556 3.964064 -22.697515 0.463208 0.000000 0.000000 0.000000 
-0.127931 92.456970 60.595432 -2.861255 8.276577 -0.215800 4.294450 -10.195617 2.322488 0.222952 2.236265 0.642312 -1.237278 -1.848599 -1.909717 -13.044562 21.568201 1.966461 -2.179591 7.663993 7.385207 -82.045456 19.670931 -8.094549 3.861064 6.363432 -9.673715 -12.175200 5.797560 8.384870 -9.759571 3.149910 -6.044497 78.520828 30.218544 19.930189 -0.606933 2.321610 0.560030 16.806477 1.399869 -6.256799 4.120188 -32.607349 -10.608213 1.304610 35.523888 -32.526501 2.239138 -20.407520 46.231922 0.000000 0.000000 0.000000 -1.238084 -0.447741 -4.536854 6.699787 18.230370 -1.516573 4.159329 -22.667475 0.779008 0.000000 0.000000 0.000000 
0.078502 92.467712 61.069763 -2.856296 8.352506 -0.384357 4.248514 -10.157228 2.282417 0.214893 2.135365 0.631188 -1.241238 -1.917739 -1.869991 -13.107674 21.542587 2.024838 -2.148581 7.558709 7.291550 -82.029213 19.701054 -8.015187 3.899353 6.322795 -9.819580 -12.151843 5.768278 8.371001 -9.774814 3.197998 -6.051646 78.600739 30.214239 19.885988 -0.585678 2.343718 0.529615 16.829424 1.419644 -6.261978 4.066981 -32.372051 -10.511993 1.334346 35.287571 -32.883873 2.276371 -20.490004 46.561722 0.000000 0.000000 0.000000 -1.327876 -0.546179 -4.599874 6.537933 18.731398 -1.703863 4.361063 -22.629847 1.106830 0.000000 0.000000 0.000000 
0.286403 92.480492 61.542942 -2.848933 8.427852 -0.554302 4.197718 -10.114476 2.236234 0.212750 2.031106 0.618078 -1.245931 -1.986824 -1.828457 -13.169471 21.518963 2.084845 -2.113384 7.442247 7.183302 -82.020927 19.736021 -7.917278 3.950360 6.276237 -9.980667 -12.127081 5.735122 8.355001 -9.792368 3.245024 -6.056202 78.679413 30.210733 19.839672 -0.566078 2.364031 0.500014 16.853504 1.437717 -6.266545 4.011239 -32.133041 -10.411093 1.357616 35.064461 -33.223843 2.356206 -20.554197 46.874805 0.000000 0.000000 0.000000 -1.420057 -0.667229 -4.665050 6.369382 19.266727 -1.902122 4.568747 -22.584318 1.445985 0.000000 0.000000 0.000000 
